<svg width="58" height="45" viewBox="0 0 58 45" fill="none" xmlns="http://www.w3.org/2000/svg">
<rect width="58" height="45" rx="20" fill="#F31B20"/>
<path d="M19.492 11.79C19.5135 11.5639 19.6215 11.3548 19.7935 11.2064C19.9655 11.058 20.1882 10.9818 20.4151 10.9936C20.6419 11.0055 20.8554 11.1046 21.011 11.2701C21.1666 11.4356 21.2522 11.6549 21.25 11.882V17.749C21.25 17.9479 21.329 18.1387 21.4697 18.2793C21.6103 18.42 21.8011 18.499 22 18.499C22.1989 18.499 22.3897 18.42 22.5303 18.2793C22.671 18.1387 22.75 17.9479 22.75 17.749V11.75C22.75 11.5511 22.829 11.3603 22.9697 11.2197C23.1103 11.079 23.3011 11 23.5 11C23.6989 11 23.8897 11.079 24.0303 11.2197C24.171 11.3603 24.25 11.5511 24.25 11.75V17.749C24.25 17.9479 24.329 18.1387 24.4697 18.2793C24.6103 18.42 24.8011 18.499 25 18.499C25.1989 18.499 25.3897 18.42 25.5303 18.2793C25.671 18.1387 25.75 17.9479 25.75 17.749V11.882C25.7526 11.6578 25.8404 11.4431 25.9957 11.2814C26.151 11.1197 26.362 11.0231 26.5858 11.0114C26.8097 10.9997 27.0297 11.0737 27.2009 11.2183C27.3722 11.3629 27.482 11.5673 27.508 11.79C27.584 12.512 28 16.575 28 18.5C28 19.838 27.415 21.04 26.49 21.864C26.156 22.16 26 22.465 26 22.721V23.448L26.001 23.495C26.043 24.094 26.5 30.782 26.5 32C26.5 32.394 26.4224 32.7841 26.2716 33.1481C26.1209 33.512 25.8999 33.8428 25.6213 34.1213C25.3427 34.3999 25.012 34.6209 24.6481 34.7717C24.2841 34.9224 23.894 35 23.5 35C23.106 35 22.7159 34.9224 22.3519 34.7717C21.988 34.6209 21.6573 34.3999 21.3787 34.1213C21.1001 33.8428 20.8791 33.512 20.7284 33.1481C20.5776 32.7841 20.5 32.394 20.5 32C20.5 30.782 20.958 24.094 20.999 23.495L21 23.448V22.721C21 22.466 20.844 22.161 20.51 21.864C20.035 21.4417 19.6549 20.9236 19.3946 20.3438C19.1344 19.764 18.9999 19.1356 19 18.5C19 16.575 19.416 12.512 19.492 11.79ZM32.955 23L32.923 23.556C32.876 24.373 32.813 25.476 32.751 26.618C32.627 28.885 32.5 31.352 32.5 32C32.5 32.394 32.5776 32.7841 32.7284 33.1481C32.8791 33.512 33.1001 33.8428 33.3787 34.1213C33.6573 34.3999 33.988 34.6209 34.3519 34.7717C34.7159 34.9224 35.106 35 35.5 35C35.894 35 36.2841 34.9224 36.6481 34.7717C37.012 34.6209 37.3427 34.3999 37.6213 34.1213C37.8999 33.8428 38.1209 33.512 38.2716 33.1481C38.4224 32.7841 38.5 32.394 38.5 32C38.5 31.279 38.342 28.526 38.206 26.145L38.202 26.079C38.093 24.18 38 22.55 38 22.25V11.75C38 11.5511 37.921 11.3603 37.7803 11.2197C37.6397 11.079 37.4489 11 37.25 11H36.75C34.9598 11 33.2429 11.7112 31.977 12.977C30.7112 14.2429 30 15.9598 30 17.75V21.25C30 22.216 30.784 23 31.75 23H32.955Z" fill="white"/>
</svg>
