<svg width="27" height="13" viewBox="0 0 27 13" fill="none" xmlns="http://www.w3.org/2000/svg">
<path fill-rule="evenodd" clip-rule="evenodd" d="M7.071 7.071L1.414 12.728L0 11.314L4.95 6.364L0 1.414L1.414 0L7.071 5.657C7.25847 5.84453 7.36379 6.09884 7.36379 6.364C7.36379 6.62916 7.25847 6.88347 7.071 7.071Z" fill="#F31B20"/>
<path fill-rule="evenodd" clip-rule="evenodd" d="M16.4348 7.071L10.7778 12.728L9.36377 11.314L14.3138 6.364L9.36377 1.414L10.7778 0L16.4348 5.657C16.6222 5.84453 16.7276 6.09884 16.7276 6.364C16.7276 6.62916 16.6222 6.88347 16.4348 7.071Z" fill="#F31B20"/>
<path fill-rule="evenodd" clip-rule="evenodd" d="M25.7985 7.071L20.1415 12.728L18.7275 11.314L23.6775 6.364L18.7275 1.414L20.1415 0L25.7985 5.657C25.986 5.84453 26.0913 6.09884 26.0913 6.364C26.0913 6.62916 25.986 6.88347 25.7985 7.071Z" fill="#F31B20"/>
</svg>
